<?xml version="1.0" standalone="no"?>
<!DOCTYPE svg PUBLIC "-//W3C//DTD SVG 20010904//EN"
 "http://www.w3.org/TR/2001/REC-SVG-20010904/DTD/svg10.dtd">
<svg version="1.0" xmlns="http://www.w3.org/2000/svg"
 width="1280.000000pt" height="1062.000000pt" viewBox="0 0 1280.000000 1062.000000"
 preserveAspectRatio="xMidYMid meet">
<g transform="translate(0.000000,1062.000000) scale(0.100000,-0.100000)"
fill="#ffc107" stroke="none">
<path d="M2910 10609 c-227 -29 -444 -141 -633 -325 -108 -107 -187 -202 -362
-439 -271 -369 -371 -473 -537 -560 -169 -89 -307 -119 -767 -165 -327 -33
-435 -61 -517 -133 -56 -50 -85 -105 -91 -177 -16 -171 93 -285 331 -345 130
-33 278 -46 546 -48 l235 -2 177 47 c97 26 281 81 410 122 266 85 316 99 413
117 92 18 399 18 583 0 l144 -14 -8 -101 c-4 -56 -7 -310 -6 -566 3 -650 -13
-902 -74 -1178 -45 -204 -97 -339 -303 -796 -138 -304 -188 -432 -230 -577
-88 -304 -103 -648 -42 -994 150 -859 776 -1691 1636 -2175 425 -239 890 -427
1310 -530 94 -23 171 -43 172 -44 0 0 19 -93 42 -206 65 -327 74 -439 45 -578
-29 -143 -99 -238 -213 -290 -74 -34 -219 -40 -461 -19 -204 18 -354 11 -620
-28 -532 -79 -556 -83 -488 -84 47 -1 128 -31 179 -67 45 -31 96 -103 104
-148 l6 -31 127 -1 c70 0 161 -6 202 -13 179 -30 298 -59 350 -86 23 -12 31
-10 84 26 78 52 154 74 369 105 122 17 210 36 267 56 102 36 120 36 178 2 64
-38 117 -97 143 -159 12 -30 26 -55 29 -55 4 0 17 11 30 25 46 49 126 97 165
98 44 1 61 -16 107 -108 41 -83 91 -132 152 -150 66 -20 121 -19 251 5 141 26
216 26 405 -2 l155 -22 90 22 c50 12 124 31 165 42 41 12 149 38 240 60 162
38 340 95 340 109 0 13 -473 198 -568 222 -51 13 -90 28 -88 34 13 29 66 208
78 260 9 40 13 134 13 280 -1 233 -12 324 -81 629 -13 60 -24 111 -24 114 0
11 266 -8 460 -33 164 -22 232 -26 340 -22 143 4 196 14 970 182 162 35 396
82 520 105 602 109 882 186 1086 299 69 39 174 124 174 142 0 5 -13 9 -28 9
-54 0 -41 13 52 55 234 105 429 224 546 332 144 133 147 243 8 317 -32 17 -56
35 -55 40 8 26 310 191 706 387 454 224 576 291 716 387 96 66 225 173 225
186 0 14 -391 0 -505 -19 -231 -37 -490 -98 -810 -191 -511 -149 -650 -189
-767 -219 -71 -18 -128 -31 -128 -29 0 9 213 110 473 225 149 66 340 156 424
199 145 75 318 179 310 186 -2 2 -165 -51 -363 -117 -509 -171 -693 -221 -930
-254 -261 -37 -446 -2 -546 102 -38 40 -82 123 -70 134 4 3 48 14 97 23 130
25 427 100 595 151 259 78 320 98 320 105 0 8 -211 59 -275 66 -43 5 -77 -3
-255 -61 -254 -83 -321 -91 -419 -51 -85 34 -250 146 -445 301 -269 213 -366
274 -716 450 -469 235 -891 396 -1482 565 -627 180 -879 228 -1229 237 -228 6
-304 0 -580 -43 -497 -77 -714 -72 -963 23 -139 52 -321 200 -414 336 -85 122
-154 297 -191 484 -41 204 -57 557 -42 913 9 211 13 247 41 358 41 162 94 291
250 612 140 289 198 426 232 553 33 120 33 355 0 477 -159 581 -858 1021
-1492 939z m3748 -8917 c-9 -42 -5 -68 26 -193 56 -226 67 -287 73 -399 15
-298 -135 -493 -450 -584 -126 -37 -263 -54 -553 -71 -143 -8 -277 -17 -299
-20 l-40 -5 25 17 c51 34 150 145 186 209 45 81 81 192 90 276 4 41 0 113 -11
199 -38 285 -23 360 94 481 l76 79 175 10 c96 6 258 18 360 28 102 10 201 19
221 20 l36 1 -9 -48z"/>
</g>
</svg>
